<svg xmlns="http://www.w3.org/2000/svg" viewBox="0 0 900 560">
  <rect width="900" height="560" fill="#fbf8ff"/>
  <rect x="38" y="36" width="824" height="488" rx="18" fill="#fff" stroke="#e2d8ef"/>
  <rect x="38" y="36" width="824" height="58" rx="18" fill="#7c3aed"/>
  <text x="70" y="73" font-family="Arial" font-size="22" fill="#fff">R-Shiny Bivariate Visualization System</text>
  <rect x="72" y="130" width="220" height="340" rx="10" fill="#f5f0ff" stroke="#d9c9f7"/>
  <text x="98" y="170" font-family="Arial" font-size="20" fill="#4c1d95">Variable Pair</text>
  <rect x="98" y="204" width="150" height="30" rx="7" fill="#fff" stroke="#cab7ed"/>
  <rect x="98" y="254" width="150" height="30" rx="7" fill="#fff" stroke="#cab7ed"/>
  <rect x="334" y="130" width="242" height="160" rx="10" fill="#fff7ed" stroke="#f4c38c"/>
  <circle cx="400" cy="208" r="34" fill="#fb923c" opacity=".65"/>
  <circle cx="486" cy="220" r="48" fill="#f97316" opacity=".32"/>
  <rect x="612" y="130" width="214" height="160" rx="10" fill="#ecfeff" stroke="#9ee5ed"/>
  <path d="M648 244 C682 162 738 250 792 176" fill="none" stroke="#0891b2" stroke-width="8"/>
  <rect x="334" y="322" width="492" height="148" rx="10" fill="#f8fafc" stroke="#ded9ea"/>
  <rect x="366" y="356" width="70" height="78" fill="#c4b5fd"/>
  <rect x="462" y="382" width="70" height="52" fill="#a78bfa"/>
  <rect x="558" y="338" width="70" height="96" fill="#8b5cf6"/>
  <rect x="654" y="370" width="70" height="64" fill="#7c3aed"/>
</svg>
