<svg xmlns="http://www.w3.org/2000/svg" viewBox="0 0 900 560">
  <rect width="900" height="560" fill="#f6fbff"/>
  <rect x="38" y="36" width="824" height="488" rx="18" fill="#fff" stroke="#d8e3ef"/>
  <rect x="38" y="36" width="824" height="58" rx="18" fill="#2563eb"/>
  <text x="70" y="73" font-family="Arial" font-size="22" fill="#fff">Flood Impact Mechanism Visualization System</text>
  <rect x="70" y="124" width="310" height="360" rx="10" fill="#e8f3ff" stroke="#b9d4f2"/>
  <path d="M96 394 C144 310 208 344 242 258 C284 302 322 238 354 196" fill="none" stroke="#1d4ed8" stroke-width="9"/>
  <circle cx="168" cy="306" r="32" fill="#60a5fa" opacity=".55"/>
  <circle cx="276" cy="254" r="44" fill="#3b82f6" opacity=".38"/>
  <rect x="414" y="124" width="190" height="150" rx="10" fill="#eff6ff" stroke="#b9d4f2"/>
  <text x="440" y="164" font-family="Arial" font-size="19" fill="#1e3a8a">Rainfall</text>
  <rect x="440" y="194" width="120" height="18" rx="9" fill="#60a5fa"/>
  <rect x="440" y="226" width="88" height="18" rx="9" fill="#93c5fd"/>
  <rect x="636" y="124" width="190" height="150" rx="10" fill="#f0fdf4" stroke="#bfe7ca"/>
  <text x="662" y="164" font-family="Arial" font-size="19" fill="#166534">Exposure</text>
  <circle cx="700" cy="218" r="28" fill="#22c55e" opacity=".55"/>
  <circle cx="750" cy="208" r="18" fill="#16a34a" opacity=".55"/>
  <rect x="414" y="304" width="412" height="180" rx="10" fill="#f8fafc" stroke="#d8e3ef"/>
  <path d="M448 430 L516 370 L590 408 L660 344 L792 390" fill="none" stroke="#0f766e" stroke-width="7"/>
</svg>
