<svg xmlns="http://www.w3.org/2000/svg" viewBox="0 0 900 560">
  <rect width="900" height="560" fill="#f5faf8"/>
  <rect x="38" y="36" width="824" height="488" rx="18" fill="#fff" stroke="#d8e6e1"/>
  <rect x="38" y="36" width="824" height="58" rx="18" fill="#0f766e"/>
  <text x="70" y="73" font-family="Arial" font-size="22" fill="#fff">Carbon Emission Spatiotemporal Analysis System</text>
  <rect x="70" y="124" width="210" height="360" rx="10" fill="#ecf8f5" stroke="#bddbd4"/>
  <text x="94" y="162" font-family="Arial" font-size="20" fill="#0f4f49">Controls</text>
  <rect x="94" y="190" width="150" height="28" rx="6" fill="#fff" stroke="#b7d4cd"/>
  <rect x="94" y="238" width="150" height="28" rx="6" fill="#fff" stroke="#b7d4cd"/>
  <rect x="94" y="286" width="150" height="28" rx="6" fill="#fff" stroke="#b7d4cd"/>
  <rect x="316" y="124" width="260" height="170" rx="10" fill="#eef4ff" stroke="#c7d7f3"/>
  <path d="M346 260 L380 214 L414 234 L458 174 L510 198 L548 150" fill="none" stroke="#2563eb" stroke-width="7"/>
  <rect x="604" y="124" width="226" height="170" rx="10" fill="#fff7ed" stroke="#f1c58f"/>
  <circle cx="692" cy="208" r="58" fill="#f59e0b" opacity=".28"/>
  <circle cx="732" cy="220" r="42" fill="#f97316" opacity=".42"/>
  <rect x="316" y="320" width="514" height="164" rx="10" fill="#edf7ed" stroke="#c8e3c4"/>
  <path d="M342 452 C410 342 468 426 540 356 C604 434 690 322 804 410" fill="none" stroke="#16a34a" stroke-width="8"/>
</svg>
