<svg xmlns="http://www.w3.org/2000/svg" viewBox="0 0 160 160" role="img" aria-label="Health field follow-up icon">
  <defs>
    <linearGradient id="health-bg" x1="24" y1="20" x2="134" y2="140" gradientUnits="userSpaceOnUse">
      <stop offset="0" stop-color="#172554"/>
      <stop offset=".52" stop-color="#0f766e"/>
      <stop offset="1" stop-color="#2563eb"/>
    </linearGradient>
    <filter id="soft-shadow" x="-20%" y="-20%" width="140%" height="140%">
      <feDropShadow dx="0" dy="6" stdDeviation="5" flood-color="#0b1720" flood-opacity=".25"/>
    </filter>
  </defs>
  <circle cx="80" cy="80" r="72" fill="url(#health-bg)"/>
  <path d="M47 38h66a9 9 0 0 1 9 9v75a9 9 0 0 1-9 9H47a9 9 0 0 1-9-9V47a9 9 0 0 1 9-9z" fill="#f7fbff" filter="url(#soft-shadow)"/>
  <path d="M63 35h34a7 7 0 0 1 7 7v8H56v-8a7 7 0 0 1 7-7z" fill="#dbeafe" stroke="#8bb8ee" stroke-width="3"/>
  <circle cx="80" cy="39" r="5" fill="#2563eb"/>
  <path d="M59 76h42M59 96h42M59 116h28" stroke="#cbd5e1" stroke-width="5" stroke-linecap="round"/>
  <path d="M55 82c8-19 16-19 24 0 7 17 16 17 25-7 5-13 11-18 18-12" fill="none" stroke="#dc2626" stroke-width="5" stroke-linecap="round" stroke-linejoin="round"/>
  <path d="M107 106c10-14 22-14 31 0-9 14-21 14-31 0z" fill="#e0f2fe" stroke="#fff" stroke-width="4"/>
  <circle cx="123" cy="106" r="6" fill="#0f766e"/>
  <path d="M126 95c-2-9 3-15 12-18" stroke="#fff" stroke-width="4" stroke-linecap="round"/>
</svg>
